# Blender v2.83.3 OBJ File: 'OpenGLRenderer.blend'
# www.blender.org
mtllib TV.mtl
o TV_Plane.011
v -1.008695 2.080340 -3.999923
v 1.548978 2.080340 -3.999923
v -1.008695 3.744177 -3.999923
v 1.548978 3.744177 -3.999923
v -1.112651 2.038339 -3.924164
v -1.081007 2.033299 -3.965050
v -1.073259 2.012713 -3.924164
v -1.103383 2.035819 -3.946753
v -1.097640 2.022479 -3.941527
v -1.077133 2.018743 -3.946753
v -1.101113 2.020219 -3.924164
v 1.613542 2.012713 -3.924164
v 1.621290 2.033299 -3.965050
v 1.652934 2.038339 -3.924164
v 1.617416 2.018743 -3.946753
v 1.637923 2.022479 -3.941527
v 1.643666 2.035819 -3.946753
v 1.641397 2.020219 -3.924164
v -1.112651 3.786178 -3.924163
v -1.073259 3.811803 -3.924163
v -1.081007 3.791217 -3.965050
v -1.101113 3.804297 -3.924163
v -1.097640 3.802038 -3.941527
v -1.077133 3.805774 -3.946753
v -1.103383 3.788697 -3.946753
v 1.652934 3.786178 -3.924163
v 1.621290 3.791217 -3.965050
v 1.613542 3.811803 -3.924163
v 1.643666 3.788697 -3.946753
v 1.637923 3.802038 -3.941527
v 1.617416 3.805774 -3.946753
v 1.641397 3.804297 -3.924163
v -1.091197 3.797847 -3.881424
v -1.073259 3.811803 -3.907050
v -1.112651 3.786178 -3.907050
v -1.084363 3.807590 -3.888776
v -1.100212 3.803711 -3.892255
v -1.101113 3.804297 -3.907050
v -1.106175 3.793401 -3.888776
v -1.112651 2.038339 -3.907050
v -1.073259 2.012713 -3.907050
v -1.092632 2.050670 -3.881424
v -1.101113 2.020219 -3.907050
v -1.099785 2.026462 -3.892255
v -1.081348 2.023664 -3.889098
v -1.106597 2.046096 -3.888767
v 1.613542 2.012713 -3.907050
v 1.652934 2.038339 -3.907050
v 1.632915 2.050670 -3.881424
v 1.641397 2.020219 -3.907050
v 1.640068 2.026462 -3.892255
v 1.646881 2.046096 -3.888767
v 1.621631 2.023664 -3.889098
v 1.652934 3.786178 -3.907050
v 1.613542 3.811803 -3.907050
v 1.631480 3.797847 -3.881424
v 1.641397 3.804297 -3.907050
v 1.640495 3.803711 -3.892255
v 1.624647 3.807590 -3.888776
v 1.646458 3.793401 -3.888776
v -1.041806 2.147038 -3.881424
v -1.016849 2.162983 -3.892189
v -1.033397 2.173748 -3.892189
v 1.582090 2.147038 -3.881424
v 1.573680 2.173748 -3.892189
v 1.557132 2.162983 -3.892189
v -1.033397 3.749481 -3.892189
v -1.016849 3.760246 -3.892189
v -1.042409 3.766109 -3.881424
v 1.582692 3.766109 -3.881424
v 1.557132 3.760246 -3.892189
v 1.573680 3.749481 -3.892189
v -1.033397 2.173748 -3.898572
v -1.016849 2.162983 -3.898572
v 1.557132 2.162983 -3.898572
v 1.573680 2.173748 -3.898572
v -1.033397 3.749481 -3.898572
v -1.016849 3.760246 -3.898572
v 1.573680 3.749481 -3.898572
v 1.557132 3.760246 -3.898572
v -1.008394 2.179248 -3.909337
v -1.020835 2.171155 -3.904151
v 1.548677 2.179248 -3.909337
v 1.561118 2.171155 -3.904151
v -1.008394 3.743981 -3.909337
v -1.020835 3.752074 -3.904151
v 1.548677 3.743981 -3.909337
v 1.561118 3.752074 -3.904151
vt 0.874571 0.495386
vt 0.459874 0.495386
vt 0.459874 0.017685
vt 0.874571 0.017685
vt 0.976692 0.000611
vt 0.964450 0.355451
vt 0.960188 0.355451
vt 0.972430 0.000611
vt 0.448149 0.004179
vt 0.886295 0.004179
vt 0.933055 0.358824
vt 0.944923 0.000704
vt 0.949184 0.000670
vt 0.937315 0.358790
vt 0.949561 0.720739
vt 0.933122 0.369228
vt 0.937382 0.369194
vt 0.953822 0.720705
vt 0.029754 0.514272
vt 0.029605 0.854480
vt 0.028017 0.854552
vt 0.028165 0.514344
vt 0.041113 0.514272
vt 0.041113 0.518643
vt 0.039763 0.516458
vt 0.886295 0.508892
vt 0.448149 0.508892
vt 0.998411 0.670581
vt 0.985237 0.333683
vt 0.986827 0.333687
vt 1.000000 0.670584
vt 0.010296 0.011989
vt 0.010296 0.502284
vt 0.002387 0.511396
vt 0.002387 0.002876
vt 0.413736 0.012101
vt 0.437750 0.002608
vt 0.023976 0.520707
vt 0.023970 0.843799
vt 0.022382 0.843716
vt 0.022389 0.520624
vt 0.413737 0.502171
vt 0.437750 0.511664
vt 0.899977 0.362047
vt 0.894381 0.360320
vt 0.895605 0.356835
vt 0.899891 0.356825
vt 0.889923 0.356877
vt 0.894381 0.353387
vt 0.899977 0.351642
vt 0.927515 0.367531
vt 0.928716 0.364073
vt 0.933002 0.364046
vt 0.923034 0.364079
vt 0.927470 0.360598
vt 0.964450 0.365856
vt 0.964376 0.360653
vt 0.968731 0.360653
vt 0.970100 0.364120
vt 0.970100 0.357186
vt 0.974741 0.360653
vt 0.010593 0.525008
vt 0.004848 0.523751
vt 0.005994 0.520179
vt 0.010338 0.519813
vt 0.000000 0.520684
vt 0.004409 0.516837
vt 0.009934 0.514631
vt 0.953822 0.360653
vt 0.955616 0.357773
vt 0.956437 0.360653
vt 0.955616 0.363534
vt 0.960113 0.360653
vt 0.960188 0.365856
vt 0.904238 0.362045
vt 0.904152 0.356824
vt 0.907893 0.357927
vt 0.908884 0.362840
vt 0.904238 0.351641
vt 0.908754 0.354941
vt 0.438930 0.000000
vt 0.443841 0.001272
vt 0.444521 0.004716
vt 0.937263 0.364012
vt 0.940997 0.362877
vt 0.941877 0.365856
vt 0.941957 0.357956
vt 0.444521 0.509556
vt 0.443842 0.513000
vt 0.438930 0.514272
vt 0.014844 0.524649
vt 0.014589 0.519454
vt 0.018255 0.519145
vt 0.019257 0.521949
vt 0.014185 0.514272
vt 0.018892 0.516203
vt 0.020863 0.518926
vt 0.885667 0.513071
vt 0.448777 0.513071
vt 0.982377 0.719983
vt 0.976692 0.720695
vt 0.889923 0.004903
vt 0.889923 0.508169
vt 0.944002 0.720056
vt 0.448777 0.000000
vt 0.885667 0.000000
vt 0.015148 0.879698
vt 0.020864 0.879930
vt 0.444521 0.508169
vt 0.444521 0.004903
vt 0.982377 0.001324
vt 0.918392 0.720055
vt 0.923034 0.720685
vt 0.003536 0.000079
vt 0.918433 0.000000
vt 0.923034 0.001183
vt 0.953822 0.000000
vt 0.003536 0.514193
vt 0.967959 0.000000
vt 0.000000 0.510120
vt 0.000000 0.004153
vt 0.914131 0.720057
vt 0.409823 0.016762
vt 0.407140 0.013672
vt 0.407140 0.500600
vt 0.409823 0.497510
vt 0.036321 0.518886
vt 0.032527 0.518886
vt 0.034383 0.514272
vt 0.039763 0.514272
vt 0.039763 0.519357
vt 0.036321 0.517520
vt 0.842528 0.516162
vt 0.842528 0.996909
vt 0.840522 0.997654
vt 0.840522 0.515418
vt 0.839846 1.000000
vt 0.447204 1.000000
vt 0.446588 0.997654
vt 0.444521 0.996909
vt 0.444521 0.516162
vt 0.446588 0.515418
vt 0.982377 0.331533
vt 0.995911 0.000000
vt 0.998411 0.006577
vt 0.985243 0.329313
vt 0.026742 0.514272
vt 0.026742 0.846172
vt 0.032527 0.514272
vt 0.032527 0.858209
vt 0.029754 0.853808
vt 0.029754 0.516569
vt 0.028165 0.858920
vt 0.026742 0.856797
vt 0.986832 0.329316
vt 0.988263 0.331494
vt 0.022209 0.848082
vt 0.020864 0.845814
vt 0.023797 0.848165
vt 0.029754 0.858848
vt 0.042703 0.514272
vt 0.042703 0.518643
vt 1.000000 0.006580
vt 0.838534 0.517741
vt 0.448633 0.517741
vt 0.838534 0.995330
vt 0.448634 0.995330
vt 0.447204 0.513071
vt 0.839845 0.513071
vt -0.017482 0.000080
vt 1.008875 0.000080
vt 1.008875 0.999920
vt -0.017482 0.999920
vn -0.1599 -0.2568 -0.9531
vn -0.1599 0.2568 -0.9531
vn 0.1599 0.2568 -0.9531
vn 0.1599 -0.2568 -0.9531
vn 0.1198 0.9860 -0.1158
vn -0.1198 0.9860 -0.1158
vn -0.1078 0.9904 0.0866
vn 0.1078 0.9904 0.0866
vn 0.3688 0.4463 -0.8153
vn 0.3688 -0.4463 -0.8153
vn 0.9520 -0.2560 -0.1675
vn 0.9520 0.2560 -0.1675
vn 0.9624 0.2425 0.1219
vn 0.9445 -0.2766 0.1771
vn -0.1198 -0.9860 -0.1158
vn 0.1198 -0.9860 -0.1158
vn 0.1100 -0.9628 0.2466
vn -0.1100 -0.9628 0.2466
vn 0.1914 0.8123 0.5509
vn -0.1914 0.8123 0.5509
vn -0.2306 0.8810 0.4130
vn 0.2306 0.8810 0.4130
vn 0.7949 0.3936 0.4618
vn 0.3045 0.3891 0.8694
vn -0.3688 -0.4463 -0.8153
vn -0.3688 0.4463 -0.8153
vn -0.1798 -0.9243 0.3367
vn 0.1798 -0.9243 0.3367
vn 0.2306 -0.8810 0.4130
vn -0.2306 -0.8810 0.4130
vn 0.1229 -0.1162 0.9856
vn -0.1229 -0.1162 0.9856
vn 0.2553 0.3422 0.9043
vn -0.2553 0.3422 0.9043
vn 0.0804 0.0918 0.9925
vn -0.2121 -0.1377 0.9675
vn -0.8160 0.2954 0.4967
vn -0.8089 -0.3318 0.4854
vn -0.7949 -0.3936 0.4618
vn -0.7949 0.3936 0.4618
vn -0.0804 0.0918 0.9925
vn 0.2121 -0.1377 0.9675
vn -0.9520 -0.2560 -0.1675
vn -0.7699 -0.3049 -0.5606
vn -0.5331 -0.7548 -0.3822
vn -0.5966 -0.7933 -0.1210
vn -0.1725 -0.8762 -0.4499
vn 0.1725 -0.8762 -0.4499
vn 0.5331 -0.7548 -0.3822
vn 0.5966 -0.7933 -0.1210
vn 0.7699 -0.3049 -0.5606
vn -0.9520 0.2560 -0.1675
vn -0.5966 0.7933 -0.1210
vn -0.5331 0.7548 -0.3822
vn -0.7699 0.3049 -0.5606
vn -0.1725 0.8762 -0.4499
vn 0.7699 0.3049 -0.5606
vn 0.5331 0.7548 -0.3822
vn 0.5966 0.7933 -0.1210
vn 0.1725 0.8762 -0.4499
vn -0.1639 0.8581 0.4866
vn -0.5476 0.7703 0.3265
vn -0.7649 0.3105 0.5643
vn -0.5944 0.8032 0.0382
vn -0.9624 0.2425 0.1219
vn -0.9445 -0.2766 0.1771
vn -0.5760 -0.7906 0.2076
vn -0.5058 -0.5888 0.6304
vn -0.7081 -0.1901 0.6800
vn -0.1286 -0.6343 0.7623
vn 0.5760 -0.7906 0.2076
vn 0.5058 -0.5888 0.6304
vn 0.1286 -0.6343 0.7623
vn 0.7081 -0.1901 0.6800
vn 0.5944 0.8032 0.0382
vn 0.5476 0.7703 0.3265
vn 0.7649 0.3105 0.5643
vn 0.1639 0.8581 0.4866
vn 0.8160 0.2954 0.4967
vn 0.8089 -0.3318 0.4854
vn -0.3045 0.3891 0.8694
vn -0.3045 -0.3891 0.8694
vn 0.3045 -0.3891 0.8694
vn 0.7949 -0.3936 0.4618
vn 0.1394 0.2300 0.9631
vn 0.1394 -0.2300 0.9631
vn -0.1394 0.2300 0.9631
vn -0.1394 -0.2300 0.9631
usemtl PlasticBlack
s 1
f 1/1/1 3/2/2 4/3/3 2/4/4
f 28/5/5 20/6/6 34/7/7 55/8/8
f 2/4/4 4/3/3 27/9/9 13/10/10
f 14/11/11 26/12/12 54/13/13 48/14/14
f 7/15/15 12/16/16 47/17/17 41/18/18
f 62/19/19 66/20/20 75/21/21 74/22/22
f 73/23/23 74/24/22 82/25/24
f 3/2/2 1/1/1 6/26/25 21/27/26
f 4/3/3 3/2/2 21/27/26 27/9/9
f 1/1/1 2/4/4 13/10/10 6/26/25
f 71/28/27 68/29/28 78/30/29 80/31/30
f 69/32/31 70/33/32 56/34/33 33/35/34
f 61/36/35 69/32/31 33/35/34 42/37/36
f 65/38/37 72/39/38 79/40/39 76/41/40
f 70/33/32 64/42/41 49/43/42 56/34/33
f 64/42/41 61/36/35 42/37/36 49/43/42
f 5/44/43 8/45/44 9/46/45 11/47/46
f 6/48/25 10/49/47 9/46/45 8/45/44
f 7/50/15 11/47/46 9/46/45 10/49/47
f 12/16/16 15/51/48 16/52/49 18/53/50
f 13/54/10 17/55/51 16/52/49 15/51/48
f 14/11/11 18/53/50 16/52/49 17/55/51
f 19/56/52 22/57/53 23/58/54 25/59/55
f 20/6/6 24/60/56 23/58/54 22/57/53
f 21/61/26 25/59/55 23/58/54 24/60/56
f 26/62/12 29/63/57 30/64/58 32/65/59
f 27/66/9 31/67/60 30/64/58 29/63/57
f 28/68/5 32/65/59 30/64/58 31/67/60
f 33/69/34 36/70/61 37/71/62 39/72/63
f 34/7/7 38/73/64 37/71/62 36/70/61
f 35/74/65 39/72/63 37/71/62 38/73/64
f 40/75/66 43/76/67 44/77/68 46/78/69
f 41/79/18 45/80/70 44/77/68 43/76/67
f 42/37/36 46/81/69 44/82/68 45/83/70
f 47/17/17 50/84/71 51/85/72 53/86/73
f 48/14/14 52/87/74 51/85/72 50/84/71
f 49/43/42 53/88/73 51/89/72 52/90/74
f 54/91/13 57/92/75 58/93/76 60/94/77
f 55/95/8 59/96/78 58/93/76 57/92/75
f 56/97/33 60/94/77 58/93/76 59/96/78
f 21/27/26 6/26/25 8/98/44 25/99/55
f 25/59/55 8/100/44 5/101/43 19/56/52
f 6/26/25 13/10/10 15/102/48 10/103/47
f 10/104/47 15/51/48 12/16/16 7/15/15
f 13/10/10 27/9/9 29/105/57 17/106/51
f 17/107/51 29/63/57 26/62/12 14/108/11
f 27/9/9 21/27/26 24/109/56 31/110/60
f 31/111/60 24/60/56 20/6/6 28/5/5
f 35/112/65 40/75/66 46/78/69 39/113/63
f 39/114/63 46/81/69 42/37/36 33/35/34
f 41/79/18 47/115/17 53/116/73 45/80/70
f 45/83/70 53/88/73 49/43/42 42/37/36
f 48/14/14 54/13/13 60/117/77 52/87/74
f 52/90/74 60/118/77 56/34/33 49/43/42
f 55/8/8 34/7/7 36/70/61 59/119/78
f 59/120/78 36/121/61 33/35/34 56/34/33
f 28/68/5 55/95/8 57/92/75 32/65/59
f 32/65/59 57/92/75 54/91/13 26/62/12
f 47/17/17 12/16/16 18/53/50 50/84/71
f 50/84/71 18/53/50 14/11/11 48/14/14
f 7/50/15 41/79/18 43/76/67 11/47/46
f 11/47/46 43/76/67 40/75/66 5/44/43
f 34/7/7 20/6/6 22/57/53 38/73/64
f 38/73/64 22/57/53 19/56/52 35/74/65
f 19/122/52 5/44/43 40/75/66 35/112/65
f 61/36/35 62/123/19 63/124/79
f 64/42/41 65/125/37 66/126/20
f 67/127/80 68/128/28 69/129/31
f 70/130/32 71/131/27 72/132/38
f 74/133/22 75/134/21 84/135/81 82/136/24
f 76/137/40 79/138/39 88/139/82 84/135/81
f 80/140/30 78/141/29 86/142/83 88/139/82
f 69/143/31 61/144/35 63/145/79 67/146/80
f 61/36/35 64/42/41 66/126/20 62/123/19
f 64/147/41 70/148/32 72/39/38 65/38/37
f 70/149/32 69/150/31 68/151/28 71/152/27
f 75/21/21 76/153/40 84/154/81
f 77/155/84 86/156/83 78/30/29
f 79/40/39 80/157/30 88/158/82
f 67/146/80 77/155/84 78/30/29 68/29/28
f 79/40/39 72/39/38 71/159/27 80/157/30
f 65/160/37 76/153/40 75/21/21 66/20/20
f 73/23/23 63/161/79 62/162/19 74/24/22
f 67/146/80 63/145/79 73/163/23 77/155/84
f 81/164/85 85/165/86 86/142/83 82/136/24
f 83/166/87 81/164/85 82/136/24 84/135/81
f 87/167/88 83/166/87 84/135/81 88/139/82
f 85/165/86 87/167/88 88/139/82 86/142/83
f 77/168/84 73/169/23 82/136/24 86/142/83
usemtl TVScreen
f 81/170/85 83/171/87 87/172/88 85/173/86
