# Blender v2.83.3 OBJ File: 'OpenGLRenderer.blend'
# www.blender.org
mtllib Flower.mtl
o Flower
v -3.999864 2.627343 1.007021
v -3.999864 2.627343 -0.340038
v -3.999864 3.627343 1.007021
v -3.999864 3.627343 -0.340038
v -3.979864 3.627343 1.007021
v -3.979864 2.627343 1.007021
v -3.979864 2.627343 -0.340038
v -3.979864 3.627343 -0.340038
vt 0.000000 0.000000
vt 1.000000 0.000000
vt 1.000000 1.000000
vt 0.000000 1.000000
vt 0.000000 0.000000
vt 1.000000 0.000000
vt 1.000000 1.000000
vt 0.000000 1.000000
vn 1.0000 0.0000 0.0000
vn 0.0000 -1.0000 0.0000
vn 0.0000 1.0000 0.0000
vn -1.0000 0.0000 0.0000
vn 0.0000 0.0000 -1.0000
vn 0.0000 0.0000 1.0000
usemtl Flower
s off
f 6/1/1 7/2/1 8/3/1 5/4/1
f 1/5/2 2/6/2 7/2/2 6/1/2
f 4/7/3 3/8/3 5/4/3 8/3/3
usemtl Default
f 1/5/4 3/8/4 4/7/4 2/6/4
f 2/6/5 4/7/5 8/3/5 7/2/5
f 3/8/6 1/5/6 6/1/6 5/4/6
