# Blender v2.83.3 OBJ File: 'OpenGLRenderer.blend'
# www.blender.org
mtllib Room.mtl
o Room_Plane
v -4.000000 0.000000 4.000000
v 4.000000 0.000000 4.000000
v -4.000000 0.000000 -4.000000
v 4.000000 0.000000 -4.000000
v -4.000000 5.000000 4.000000
v -4.000000 5.000000 -4.000000
v 4.000000 5.000000 -4.000000
v -4.120000 -0.120000 -4.120000
v -4.120000 -0.120000 4.000000
v 4.000000 -0.120000 4.000000
v 4.000000 -0.120000 -4.120000
v -4.120000 5.000000 -4.120000
v -4.120000 5.000000 4.000000
v 4.000000 5.000000 -4.120000
vt 1.000000 0.492611
vt 0.785959 0.492611
vt 0.785959 0.000000
vt 1.000000 0.000000
vt 1.000000 0.992611
vt 0.785959 0.992611
vt 0.785959 0.500000
vt 1.000000 0.500000
vt 0.000000 0.000000
vt 0.347603 0.000000
vt 0.347603 0.500000
vt 0.000000 0.500000
vt 0.566781 0.500000
vt 0.566781 0.000000
vt 0.785959 0.000000
vt 0.785959 0.500000
vt 0.566781 0.000000
vt 0.347603 0.500000
vt 0.347603 0.000000
vt 0.347603 0.507389
vt 0.005137 0.507389
vt 0.000000 0.500000
vt 0.347603 0.500000
vt 0.561644 0.992611
vt 0.561644 0.500000
vt 0.566781 0.500000
vt 0.566781 1.000000
vt 0.347603 0.992611
vt 0.347603 1.000000
vt 0.780822 0.507389
vt 0.566781 0.507389
vt 0.566781 0.500000
vt 0.785959 0.500000
vt 0.005137 1.000000
vt 0.000000 1.000000
vt 0.780822 1.000000
vt 0.785959 1.000000
vt 0.999900 0.000100
vt 0.999900 0.999900
vt 0.000100 0.999900
vt 0.000100 0.000100
vn 0.0000 0.0000 -1.0000
vn -1.0000 0.0000 0.0000
vn 0.0000 1.0000 0.0000
vn 0.0000 0.0000 1.0000
vn 1.0000 0.0000 0.0000
vn 0.0000 -1.0000 0.0000
usemtl Wall
s off
f 3/1/1 6/2/1 7/3/1 4/4/1
f 1/5/2 5/6/2 6/7/2 3/8/2
f 9/9/3 10/10/3 11/11/3 8/12/3
f 8/13/4 11/14/4 14/15/4 12/16/4
f 9/17/5 8/13/5 12/18/5 13/19/5
f 7/20/6 6/21/6 12/22/6 14/23/6
f 1/24/1 2/25/1 10/26/1 9/27/1
f 5/28/1 1/24/1 9/27/1 13/29/1
f 4/30/2 7/31/2 14/32/2 11/33/2
f 6/21/6 5/34/6 13/35/6 12/22/6
f 2/36/2 4/30/2 11/33/2 10/37/2
usemtl Floor
f 1/38/6 3/39/6 4/40/6 2/41/6
