# Blender v2.83.3 OBJ File: 'OpenGLRenderer.blend'
# www.blender.org
mtllib Desk.mtl
o Desk_Plane.012
v -1.839135 0.281950 -1.961682
v -1.911951 0.310234 -1.961682
v -1.984767 0.281950 -1.933398
v -1.911951 0.253666 -1.933398
v -1.890624 0.290234 -1.961682
v -1.913836 0.281218 -1.941629
v -1.933278 0.296092 -1.941682
v -1.963440 0.261950 -1.933398
v -1.875543 0.273666 -1.941682
v 2.677880 0.281950 -1.961682
v 2.750696 0.253666 -1.933398
v 2.823512 0.281950 -1.933398
v 2.750696 0.310234 -1.961682
v 2.714288 0.273666 -1.941682
v 2.752581 0.281218 -1.941629
v 2.802185 0.261950 -1.933398
v 2.772023 0.296092 -1.941682
v 2.729369 0.290234 -1.961682
v -2.155067 0.215800 -3.210871
v -2.082251 0.215800 -3.239155
v -2.082251 0.187516 -3.210871
v -2.133739 0.215800 -3.230871
v -2.124291 0.199470 -3.227201
v -2.082251 0.195800 -3.230871
v -2.133739 0.195800 -3.210871
v 2.993812 0.215800 -3.210871
v 2.920996 0.187516 -3.210871
v 2.920996 0.215800 -3.239155
v 2.972485 0.195800 -3.210871
v 2.963036 0.199470 -3.227201
v 2.920996 0.195800 -3.230871
v 2.972485 0.215800 -3.230871
v -2.155067 0.965304 -3.210871
v -2.082251 0.993588 -3.210871
v -2.082251 0.965304 -3.239155
v -2.133739 0.985304 -3.210871
v -2.124291 0.981634 -3.227201
v -2.082251 0.985304 -3.230871
v -2.133739 0.965304 -3.230871
v -1.839135 0.899154 -1.961682
v -1.911951 0.927438 -1.933398
v -1.984767 0.899153 -1.933398
v -1.911951 0.870869 -1.961682
v -1.875543 0.907438 -1.941682
v -1.913836 0.899886 -1.941629
v -1.963440 0.919154 -1.933398
v -1.933278 0.885011 -1.941682
v -1.890624 0.890869 -1.961682
v 2.677880 0.899154 -1.961682
v 2.750696 0.870869 -1.961682
v 2.823512 0.899153 -1.933398
v 2.750696 0.927438 -1.933398
v 2.729369 0.890869 -1.961682
v 2.752581 0.899886 -1.941629
v 2.772023 0.885011 -1.941682
v 2.802185 0.919154 -1.933398
v 2.714288 0.907438 -1.941682
v 2.993812 0.965304 -3.210871
v 2.920996 0.965304 -3.239155
v 2.920996 0.993588 -3.210871
v 2.972485 0.965304 -3.230871
v 2.963036 0.981634 -3.227201
v 2.920996 0.985304 -3.230871
v 2.972485 0.985304 -3.210871
v -2.155067 0.215800 -1.961682
v -2.082251 0.187516 -1.961682
v -2.009435 0.215800 -1.933398
v -2.082251 0.244084 -1.933398
v -2.133739 0.195800 -1.961682
v -2.110802 0.204710 -1.941629
v -2.045843 0.195800 -1.941682
v -2.060924 0.224084 -1.933398
v -2.133739 0.229942 -1.941682
v 2.848180 0.215800 -1.933398
v 2.920996 0.187516 -1.961682
v 2.993812 0.215800 -1.961682
v 2.920996 0.244084 -1.933398
v 2.884588 0.195800 -1.941682
v 2.949547 0.204710 -1.941629
v 2.972485 0.195800 -1.961682
v 2.972485 0.229942 -1.941682
v 2.899669 0.224084 -1.933398
v -2.155067 0.965304 -1.961682
v -2.082251 0.937019 -1.933398
v -2.009435 0.965304 -1.933398
v -2.082251 0.993588 -1.961682
v -2.133739 0.951162 -1.941682
v -2.110802 0.976394 -1.941629
v -2.060924 0.957019 -1.933398
v -2.045843 0.985304 -1.941682
v -2.133739 0.985304 -1.961682
v 2.848180 0.965304 -1.933398
v 2.920996 0.937019 -1.933398
v 2.993812 0.965304 -1.961682
v 2.920996 0.993588 -1.961682
v 2.899669 0.957019 -1.933398
v 2.949547 0.976394 -1.941629
v 2.972485 0.951162 -1.941682
v 2.972485 0.985304 -1.961682
v 2.884588 0.985304 -1.941682
v -1.839135 0.281950 -3.066036
v -1.839135 0.310234 -3.094321
v -1.911951 0.310234 -3.066036
v -1.839135 0.290234 -3.086037
v -1.881176 0.293904 -3.082366
v -1.890624 0.310234 -3.086037
v -1.890624 0.290234 -3.066036
v 2.677880 0.281950 -3.066036
v 2.750696 0.310234 -3.066036
v 2.677880 0.310234 -3.094321
v 2.729369 0.290234 -3.066036
v 2.719921 0.293904 -3.082366
v 2.729369 0.310234 -3.086037
v 2.677880 0.290234 -3.086037
v -1.839135 0.899154 -3.066036
v -1.911951 0.870869 -3.066036
v -1.839135 0.870869 -3.094321
v -1.890624 0.890869 -3.066036
v -1.881176 0.887199 -3.082366
v -1.890624 0.870869 -3.086037
v -1.839135 0.890869 -3.086037
v 2.677880 0.899154 -3.066036
v 2.677880 0.870869 -3.094321
v 2.750696 0.870869 -3.066036
v 2.677880 0.890869 -3.086037
v 2.719921 0.887199 -3.082366
v 2.729369 0.870869 -3.086037
v 2.729369 0.890869 -3.066036
vt 0.169878 0.424045
vt 0.169878 0.830350
vt 0.006178 0.830350
vt 0.006178 0.424045
vt 0.817767 0.384559
vt 0.817767 0.751377
vt 0.576563 0.751378
vt 0.576563 0.384559
vt 0.564208 0.412218
vt 0.291370 0.412218
vt 0.291370 0.005913
vt 0.564208 0.005913
vt 0.993822 0.278902
vt 0.993822 0.540065
vt 0.830122 0.540065
vt 0.830122 0.278902
vt 0.952571 0.782774
vt 0.830122 0.782774
vt 0.830122 0.551891
vt 0.952571 0.551891
vt 0.006178 0.412218
vt 0.006178 0.005913
vt 0.279015 0.005913
vt 0.279015 0.412218
vt 0.576563 0.763204
vt 0.699012 0.763204
vt 0.699012 0.994087
vt 0.576563 0.994087
vt 0.358289 0.790864
vt 0.358289 0.424045
vt 0.480738 0.424045
vt 0.480738 0.790864
vt 0.190504 0.437874
vt 0.190504 0.816520
vt 0.182233 0.824436
vt 0.182233 0.429958
vt 0.993822 0.005913
vt 0.993822 0.267076
vt 0.830122 0.267076
vt 0.830122 0.005913
vt 0.196681 0.822433
vt 0.331486 0.822433
vt 0.339756 0.830350
vt 0.188411 0.830350
vt 0.331486 0.431961
vt 0.196681 0.431961
vt 0.188411 0.424045
vt 0.339756 0.424045
vt 0.337663 0.816520
vt 0.337663 0.437874
vt 0.345934 0.429958
vt 0.345934 0.824436
vt 0.576563 0.372732
vt 0.576563 0.378645
vt 0.572183 0.378645
vt 0.570385 0.375689
vt 0.702101 0.757291
vt 0.705190 0.757291
vt 0.705190 0.763204
vt 0.192313 0.820701
vt 0.196521 0.816673
vt 0.199770 0.816520
vt 0.196681 0.813563
vt 0.196681 0.816520
vt 0.576563 0.005913
vt 0.570385 0.002957
vt 0.570385 0.000000
vt 0.576563 0.000000
vt 0.192313 0.433693
vt 0.196521 0.437721
vt 0.196681 0.440831
vt 0.199770 0.437874
vt 0.196681 0.437874
vt 0.958749 0.782774
vt 0.958749 0.786966
vt 0.955660 0.788687
vt 0.993822 0.000000
vt 0.997389 0.000000
vt 1.000000 0.005913
vt 0.176056 0.830350
vt 0.176056 0.833764
vt 0.169878 0.836263
vt 0.291370 0.418131
vt 0.287804 0.418131
vt 0.285193 0.412218
vt 1.000000 0.540065
vt 1.000000 0.543479
vt 0.993822 0.545978
vt 0.285193 0.005913
vt 0.285193 0.002499
vt 0.291370 0.000000
vt 0.169878 0.418131
vt 0.173445 0.418131
vt 0.176056 0.424045
vt 0.823944 0.005913
vt 0.823944 0.002499
vt 0.830122 0.000000
vt 0.285193 0.412218
vt 0.285193 0.415632
vt 0.279015 0.418131
vt 0.006178 0.836263
vt 0.002611 0.836263
vt 0.000000 0.830350
vt 0.823944 0.754334
vt 0.823944 0.757291
vt 0.817767 0.757291
vt 0.335854 0.820701
vt 0.331646 0.816673
vt 0.331486 0.813563
vt 0.328397 0.816520
vt 0.331486 0.816520
vt 0.570385 0.763204
vt 0.570385 0.759012
vt 0.573474 0.757291
vt 0.817767 0.378645
vt 0.822146 0.378645
vt 0.823944 0.381602
vt 0.827033 0.788687
vt 0.823944 0.788687
vt 0.823944 0.782774
vt 0.335854 0.433693
vt 0.331646 0.437721
vt 0.328397 0.437874
vt 0.331486 0.440831
vt 0.331486 0.437874
vt 0.830122 0.545978
vt 0.826555 0.545978
vt 0.823944 0.540065
vt 0.000000 0.424045
vt 0.000000 0.420631
vt 0.006178 0.418131
vt 0.279015 0.000000
vt 0.282582 0.000000
vt 0.285193 0.005913
vt 1.000000 0.267076
vt 1.000000 0.271268
vt 0.990734 0.272989
vt 0.570385 0.409261
vt 0.570385 0.414537
vt 0.564208 0.418131
vt 0.184043 0.828618
vt 0.179811 0.832668
vt 0.176056 0.827393
vt 0.185322 0.836263
vt 0.179811 0.836263
vt 0.176056 0.427001
vt 0.176056 0.421726
vt 0.184043 0.425777
vt 0.564208 0.000000
vt 0.568587 0.000000
vt 0.570385 0.008870
vt 0.990734 0.272989
vt 0.996245 0.272989
vt 1.000000 0.278902
vt 0.179811 0.421726
vt 0.185322 0.418131
vt 0.833211 0.272989
vt 0.827700 0.272989
vt 0.823944 0.267076
vt 0.344124 0.828618
vt 0.348356 0.832668
vt 0.342845 0.836263
vt 0.352111 0.827393
vt 0.352111 0.832668
vt 0.006178 0.418131
vt 0.001798 0.418131
vt 0.000000 0.409261
vt 0.344124 0.425777
vt 0.348356 0.421726
vt 0.352111 0.427001
vt 0.342845 0.418131
vt 0.348356 0.418131
vt 0.823944 0.278902
vt 0.823944 0.274710
vt 0.833211 0.272989
vt 0.000000 0.008870
vt 0.000000 0.003595
vt 0.006178 0.000000
vt 0.817767 0.372732
vt 0.823944 0.372732
vt 0.823944 0.376146
vt 0.817767 0.378645
vt 0.358289 0.796777
vt 0.354722 0.796777
vt 0.352111 0.790864
vt 0.705190 0.994087
vt 0.705190 0.997501
vt 0.699012 1.000000
vt 0.817767 0.005913
vt 0.817767 0.000000
vt 0.821333 0.000000
vt 0.823944 0.005913
vt 0.952571 0.545978
vt 0.956138 0.545978
vt 0.958749 0.551891
vt 0.352111 0.424045
vt 0.352111 0.420631
vt 0.358289 0.418131
vt 0.576563 0.757291
vt 0.572996 0.757291
vt 0.570385 0.751378
vt 0.576563 1.000000
vt 0.572996 1.000000
vt 0.570385 0.994087
vt 0.486916 0.790864
vt 0.486916 0.794278
vt 0.480738 0.796777
vt 0.570385 0.384559
vt 0.570385 0.381145
vt 0.576563 0.378645
vt 0.480738 0.418131
vt 0.484305 0.418131
vt 0.486916 0.424045
vt 0.823944 0.551891
vt 0.823944 0.548477
vt 0.830122 0.545978
vn 0.0737 -0.1829 -0.9803
vn -0.0737 -0.1829 -0.9803
vn -0.0737 0.1829 -0.9803
vn 0.0737 0.1829 -0.9803
vn -0.0546 -0.9746 0.2172
vn 0.0546 -0.9746 0.2172
vn 0.0737 -0.9803 0.1829
vn -0.0737 -0.9803 0.1829
vn -0.0939 -0.9601 0.2632
vn -0.0737 -0.9803 -0.1829
vn 0.0737 -0.9803 -0.1829
vn 0.0939 -0.9601 0.2632
vn 0.8431 -0.3683 0.3917
vn 0.8720 -0.3461 -0.3461
vn 0.8720 0.3461 -0.3461
vn 0.8431 0.3683 0.3917
vn -0.8101 0.3423 0.4760
vn -0.8101 -0.3423 0.4760
vn -0.8720 -0.3461 0.3461
vn -0.8720 0.3461 0.3461
vn -0.0939 0.9601 0.2632
vn 0.0939 0.9601 0.2632
vn 0.0737 0.9803 -0.1829
vn -0.0737 0.9803 -0.1829
vn 0.8101 -0.3423 0.4760
vn 0.8101 0.3423 0.4760
vn 0.8720 0.3461 0.3461
vn 0.8720 -0.3461 0.3461
vn 0.0737 0.1829 0.9803
vn -0.0737 0.1829 0.9803
vn -0.0737 -0.1829 0.9803
vn 0.0737 -0.1829 0.9803
vn -0.0204 0.1473 0.9889
vn 0.0204 0.1473 0.9889
vn -0.0049 -0.1955 0.9807
vn 0.0049 -0.1955 0.9807
vn -0.8720 -0.3461 -0.3461
vn -0.8431 -0.3683 0.3917
vn -0.8431 0.3683 0.3917
vn -0.8720 0.3461 -0.3461
vn 0.0520 0.0224 0.9984
vn 0.0520 -0.0224 0.9984
vn -0.0878 0.0398 0.9953
vn -0.0878 -0.0398 0.9953
vn -0.0520 -0.0224 0.9984
vn -0.0520 0.0224 0.9984
vn 0.0878 -0.0398 0.9953
vn 0.0878 0.0398 0.9953
vn 0.0204 -0.1473 0.9889
vn -0.0204 -0.1473 0.9889
vn 0.0049 0.1955 0.9807
vn -0.0049 0.1955 0.9807
vn 0.0546 0.9746 0.2172
vn 0.3598 0.8568 0.3694
vn 0.1979 0.4167 0.8872
vn 0.0659 0.6198 0.7819
vn 0.3031 0.1545 0.9403
vn 0.0417 0.0693 0.9967
vn -0.0546 0.9746 0.2172
vn -0.0659 0.6198 0.7819
vn -0.1979 0.4167 0.8872
vn -0.3598 0.8568 0.3694
vn -0.0417 0.0693 0.9967
vn -0.3031 0.1546 0.9403
vn -0.4588 -0.2506 -0.8524
vn -0.2883 -0.6771 -0.6771
vn -0.4588 -0.8524 -0.2506
vn -0.0713 -0.7053 -0.7053
vn 0.4588 -0.8524 -0.2506
vn 0.2883 -0.6771 -0.6771
vn 0.4588 -0.2506 -0.8524
vn 0.0713 -0.7053 -0.7053
vn -0.4588 0.8524 -0.2506
vn -0.2883 0.6771 -0.6771
vn -0.4588 0.2506 -0.8524
vn -0.0713 0.7053 -0.7053
vn 0.0659 -0.6198 0.7819
vn 0.1979 -0.4167 0.8872
vn 0.3597 -0.8568 0.3694
vn 0.0417 -0.0693 0.9967
vn 0.3031 -0.1545 0.9403
vn -0.3598 -0.8568 0.3694
vn -0.1979 -0.4167 0.8872
vn -0.0659 -0.6198 0.7819
vn -0.3031 -0.1545 0.9403
vn -0.0417 -0.0693 0.9967
vn 0.4588 0.2506 -0.8524
vn 0.2883 0.6771 -0.6771
vn 0.4588 0.8524 -0.2506
vn 0.0713 0.7053 -0.7053
vn -0.4431 -0.8173 0.3685
vn -0.2030 -0.5178 0.8310
vn -0.4317 -0.1535 0.8888
vn -0.0322 -0.6787 0.7337
vn -0.0406 -0.1478 0.9882
vn 0.0322 -0.6787 0.7337
vn 0.2030 -0.5178 0.8310
vn 0.0406 -0.1478 0.9882
vn 0.4431 -0.8173 0.3685
vn 0.4317 -0.1535 0.8888
vn -0.4317 0.1535 0.8888
vn -0.2030 0.5178 0.8310
vn -0.4431 0.8173 0.3685
vn -0.0406 0.1478 0.9882
vn -0.0322 0.6787 0.7337
vn 0.0406 0.1479 0.9882
vn 0.2030 0.5178 0.8310
vn 0.0322 0.6787 0.7337
vn 0.4317 0.1535 0.8888
vn 0.4431 0.8173 0.3685
vn 0.0737 0.9803 0.1829
vn 0.0713 0.7053 0.7053
vn 0.2883 0.6771 0.6771
vn 0.4588 0.8524 0.2506
vn 0.4588 0.2506 0.8524
vn -0.0737 0.9803 0.1829
vn -0.4588 0.8524 0.2506
vn -0.2883 0.6771 0.6771
vn -0.0713 0.7053 0.7053
vn -0.4588 0.2506 0.8524
vn 0.4588 -0.8524 0.2506
vn 0.2883 -0.6771 0.6771
vn 0.0713 -0.7053 0.7053
vn 0.4588 -0.2506 0.8524
vn -0.0713 -0.7053 0.7053
vn -0.2883 -0.6771 0.6771
vn -0.4588 -0.8524 0.2506
vn -0.4588 -0.2506 0.8524
usemtl WoodDesk
s 1
f 28/1/1 20/2/2 35/3/3 59/4/4
f 49/5/5 40/6/6 115/7/7 122/8/8
f 66/9/9 21/10/10 27/11/11 75/12/12
f 76/13/13 26/14/14 58/15/15 94/16/16
f 13/17/17 50/18/18 124/19/19 109/20/20
f 86/21/21 95/22/22 60/23/23 34/24/24
f 43/25/25 2/26/26 103/27/27 116/28/28
f 102/29/29 110/30/30 123/31/31 117/32/32
f 11/33/33 4/34/34 67/35/35 74/36/36
f 19/37/37 65/38/38 83/39/39 33/40/40
f 3/41/41 42/42/42 84/43/43 68/44/44
f 51/45/45 12/46/46 77/47/47 93/48/48
f 41/49/49 52/50/50 92/51/51 85/52/52
f 1/53/53 5/54/54 6/55/55 9/56/56
f 2/26/26 7/57/57 6/58/55 5/59/54
f 3/41/41 8/60/58 6/61/55 7/62/57
f 4/34/34 9/63/56 6/64/55 8/60/58
f 10/65/59 14/66/60 15/67/61 18/68/62
f 11/33/33 16/69/63 15/70/61 14/71/60
f 12/46/46 17/72/64 15/73/61 16/69/63
f 13/17/17 18/74/62 15/75/61 17/76/64
f 19/37/37 22/77/65 23/78/66 25/79/67
f 20/2/2 24/80/68 23/81/66 22/82/65
f 21/10/10 25/83/67 23/84/66 24/85/68
f 26/14/14 29/86/69 30/87/70 32/88/71
f 27/11/11 31/89/72 30/90/70 29/91/69
f 28/1/1 32/92/71 30/93/70 31/94/72
f 33/40/40 36/95/73 37/96/74 39/97/75
f 34/24/24 38/98/76 37/99/74 36/100/73
f 35/3/3 39/101/75 37/102/74 38/103/76
f 40/6/6 44/104/77 45/105/78 48/106/79
f 41/49/49 46/107/80 45/108/78 44/109/77
f 42/42/42 47/110/81 45/111/78 46/107/80
f 43/25/25 48/112/79 45/113/78 47/114/81
f 49/5/5 53/115/82 54/116/83 57/117/84
f 50/18/18 55/118/85 54/119/83 53/120/82
f 51/45/45 56/121/86 54/122/83 55/123/85
f 52/50/50 57/124/84 54/125/83 56/121/86
f 58/15/15 61/126/87 62/127/88 64/128/89
f 59/4/4 63/129/90 62/130/88 61/131/87
f 60/23/23 64/132/89 62/133/88 63/134/90
f 65/38/38 69/135/91 70/136/92 73/137/93
f 66/9/9 71/138/94 70/139/92 69/140/91
f 67/35/35 72/141/95 70/142/92 71/143/94
f 68/44/44 73/144/93 70/145/92 72/141/95
f 74/36/36 78/146/96 79/147/97 82/148/98
f 75/12/12 80/149/99 79/150/97 78/151/96
f 76/13/13 81/152/100 79/153/97 80/154/99
f 77/47/47 82/148/98 79/155/97 81/156/100
f 83/39/39 87/157/101 88/158/102 91/159/103
f 84/43/43 89/160/104 88/161/102 87/162/101
f 85/52/52 90/163/105 88/164/102 89/160/104
f 86/21/21 91/165/103 88/166/102 90/167/105
f 92/51/51 96/168/106 97/169/107 100/170/108
f 93/48/48 98/171/109 97/172/107 96/168/106
f 94/16/16 99/173/110 97/174/107 98/175/109
f 95/22/22 100/176/108 97/177/107 99/178/110
f 101/179/111 104/180/112 105/181/113 107/182/114
f 102/29/29 106/183/115 105/184/113 104/185/112
f 103/27/27 107/186/114 105/187/113 106/188/115
f 108/189/116 111/190/117 112/191/118 114/192/119
f 109/20/20 113/193/120 112/194/118 111/195/117
f 110/30/30 114/196/119 112/197/118 113/198/120
f 115/7/7 118/199/121 119/200/122 121/201/123
f 116/28/28 120/202/124 119/203/122 118/204/121
f 117/32/32 121/205/123 119/206/122 120/207/124
f 122/8/8 125/208/125 126/209/126 128/210/127
f 123/31/31 127/211/128 126/212/126 125/213/125
f 124/19/19 128/214/127 126/215/126 127/216/128
f 21/10/10 66/9/9 69/140/91 25/83/67
f 25/79/67 69/135/91 65/38/38 19/37/37
f 66/9/9 75/12/12 78/151/96 71/138/94
f 71/143/94 78/146/96 74/36/36 67/35/35
f 75/12/12 27/11/11 29/91/69 80/149/99
f 80/154/99 29/86/69 26/14/14 76/13/13
f 27/11/11 21/10/10 24/85/68 31/89/72
f 31/94/72 24/80/68 20/2/2 28/1/1
f 33/40/40 83/39/39 91/159/103 36/95/73
f 36/100/73 91/165/103 86/21/21 34/24/24
f 85/52/52 92/51/51 100/170/108 90/163/105
f 90/167/105 100/176/108 95/22/22 86/21/21
f 94/16/16 58/15/15 64/128/89 99/173/110
f 99/178/110 64/132/89 60/23/23 95/22/22
f 59/4/4 35/3/3 38/103/76 63/129/90
f 63/134/90 38/98/76 34/24/24 60/23/23
f 68/44/44 84/43/43 87/162/101 73/144/93
f 73/137/93 87/157/101 83/39/39 65/38/38
f 35/3/3 20/2/2 22/82/65 39/101/75
f 39/97/75 22/77/65 19/37/37 33/40/40
f 58/15/15 26/14/14 32/88/71 61/126/87
f 61/131/87 32/92/71 28/1/1 59/4/4
f 76/13/13 94/16/16 98/175/109 81/152/100
f 81/156/100 98/171/109 93/48/48 77/47/47
f 4/34/34 11/33/33 14/71/60 9/63/56
f 9/56/56 14/66/60 10/65/59 1/53/53
f 40/6/6 49/5/5 57/117/84 44/104/77
f 44/109/77 57/124/84 52/50/50 41/49/49
f 2/26/26 43/25/25 47/114/81 7/57/57
f 7/62/57 47/110/81 42/42/42 3/41/41
f 12/46/46 51/45/45 55/123/85 17/72/64
f 17/76/64 55/118/85 50/18/18 13/17/17
f 77/47/47 12/46/46 16/69/63 82/148/98
f 82/148/98 16/69/63 11/33/33 74/36/36
f 3/41/41 68/44/44 72/141/95 8/60/58
f 8/60/58 72/141/95 67/35/35 4/34/34
f 84/43/43 42/42/42 46/107/80 89/160/104
f 89/160/104 46/107/80 41/49/49 85/52/52
f 51/45/45 93/48/48 96/168/106 56/121/86
f 56/121/86 96/168/106 92/51/51 52/50/50
f 101/179/111 108/189/116 114/192/119 104/180/112
f 104/185/112 114/196/119 110/30/30 102/29/29
f 117/32/32 123/31/31 125/213/125 121/205/123
f 121/201/123 125/208/125 122/8/8 115/7/7
f 102/29/29 117/32/32 120/207/124 106/183/115
f 106/188/115 120/202/124 116/28/28 103/27/27
f 109/20/20 124/19/19 127/216/128 113/193/120
f 113/198/120 127/211/128 123/31/31 110/30/30
f 1/53/53 101/179/111 107/182/114 5/54/54
f 5/59/54 107/186/114 103/27/27 2/26/26
f 115/7/7 40/6/6 48/106/79 118/199/121
f 118/204/121 48/112/79 43/25/25 116/28/28
f 13/17/17 109/20/20 111/195/117 18/74/62
f 18/68/62 111/190/117 108/189/116 10/65/59
f 49/5/5 122/8/8 128/210/127 53/115/82
f 53/120/82 128/214/127 124/19/19 50/18/18
f 1/53/53 10/65/59 108/189/116 101/179/111
o DeskLegs_Cube
v 2.719518 -0.005364 -2.025970
v 2.719518 0.015849 -2.004756
v 2.698305 0.015849 -2.025970
v 2.719518 0.205895 -2.004756
v 2.719518 0.227109 -2.025970
v 2.698305 0.205895 -2.025970
v 2.719518 -0.005364 -2.216016
v 2.698305 0.015849 -2.216016
v 2.719518 0.015849 -2.237229
v 2.719518 0.227109 -2.216016
v 2.719518 0.205895 -2.237229
v 2.698305 0.205895 -2.216016
v 2.909564 -0.005364 -2.025970
v 2.930777 0.015849 -2.025970
v 2.909564 0.015849 -2.004756
v 2.909564 0.227109 -2.025970
v 2.909564 0.205895 -2.004756
v 2.930777 0.205895 -2.025970
v 2.909564 -0.005364 -2.216016
v 2.909564 0.015849 -2.237229
v 2.930777 0.015849 -2.216016
v 2.909564 0.227109 -2.216016
v 2.930777 0.205895 -2.216016
v 2.909564 0.205895 -2.237229
v -1.880773 -0.005364 -2.025970
v -1.880773 0.015849 -2.004756
v -1.859560 0.015849 -2.025970
v -1.880773 0.205895 -2.004756
v -1.880773 0.227109 -2.025970
v -1.859560 0.205895 -2.025970
v -1.880773 -0.005364 -2.216016
v -1.859560 0.015849 -2.216016
v -1.880773 0.015849 -2.237229
v -1.880773 0.227109 -2.216016
v -1.880773 0.205895 -2.237229
v -1.859560 0.205895 -2.216016
v -2.070819 -0.005364 -2.025970
v -2.092032 0.015849 -2.025970
v -2.070819 0.015849 -2.004756
v -2.070819 0.227109 -2.025970
v -2.070819 0.205895 -2.004756
v -2.092032 0.205895 -2.025970
v -2.070819 -0.005364 -2.216016
v -2.070819 0.015849 -2.237229
v -2.092032 0.015849 -2.216016
v -2.070819 0.227109 -2.216016
v -2.092032 0.205895 -2.216016
v -2.070819 0.205895 -2.237229
v 2.719518 -0.005364 -3.146583
v 2.719518 0.015849 -3.167797
v 2.698305 0.015849 -3.146583
v 2.719518 0.205895 -3.167797
v 2.719518 0.227109 -3.146583
v 2.698305 0.205895 -3.146583
v 2.719518 -0.005364 -2.956537
v 2.698305 0.015849 -2.956537
v 2.719518 0.015849 -2.935324
v 2.719518 0.227109 -2.956537
v 2.719518 0.205895 -2.935324
v 2.698305 0.205895 -2.956537
v 2.909564 -0.005364 -3.146583
v 2.930777 0.015849 -3.146583
v 2.909564 0.015849 -3.167797
v 2.909564 0.227109 -3.146583
v 2.909564 0.205895 -3.167797
v 2.930777 0.205895 -3.146583
v 2.909564 -0.005364 -2.956537
v 2.909564 0.015849 -2.935324
v 2.930777 0.015849 -2.956537
v 2.909564 0.227109 -2.956537
v 2.930777 0.205895 -2.956537
v 2.909564 0.205895 -2.935324
v -1.880773 -0.005364 -3.146583
v -1.880773 0.015849 -3.167797
v -1.859560 0.015849 -3.146583
v -1.880773 0.205895 -3.167797
v -1.880773 0.227109 -3.146583
v -1.859560 0.205895 -3.146583
v -1.880773 -0.005364 -2.956537
v -1.859560 0.015849 -2.956537
v -1.880773 0.015849 -2.935324
v -1.880773 0.227109 -2.956537
v -1.880773 0.205895 -2.935324
v -1.859560 0.205895 -2.956537
v -2.070819 -0.005364 -3.146583
v -2.092032 0.015849 -3.146583
v -2.070819 0.015849 -3.167797
v -2.070819 0.227109 -3.146583
v -2.070819 0.205895 -3.167797
v -2.092032 0.205895 -3.146583
v -2.070819 -0.005364 -2.956537
v -2.070819 0.015849 -2.935324
v -2.092032 0.015849 -2.956537
v -2.070819 0.227109 -2.956537
v -2.092032 0.205895 -2.956537
v -2.070819 0.205895 -2.935324
vt 0.363751 0.454375
vt 0.363751 0.045625
vt 0.636250 0.045625
vt 0.636250 0.454375
vt 0.302917 0.454375
vt 0.030417 0.454375
vt 0.030417 0.045625
vt 0.302917 0.045625
vt 0.697084 0.545625
vt 0.969583 0.545625
vt 0.969583 0.954375
vt 0.697084 0.954375
vt 0.302917 0.954374
vt 0.030417 0.954374
vt 0.030417 0.545625
vt 0.302917 0.545625
vt 0.969583 0.045625
vt 0.969583 0.454375
vt 0.697084 0.454375
vt 0.697084 0.045625
vt 0.636250 0.545625
vt 0.636250 0.500000
vt 0.666667 0.545625
vt 0.636250 0.000000
vt 0.666667 0.045625
vt 0.636250 0.954374
vt 0.666667 0.954374
vt 0.636250 1.000000
vt 0.969583 0.500000
vt 1.000000 0.545625
vt 0.363751 0.545625
vt 0.333334 0.545625
vt 0.363751 0.500000
vt 0.697084 1.000000
vt 0.666667 0.954375
vt 0.363751 0.954374
vt 0.363751 1.000000
vt 0.333334 0.954375
vt 0.666667 0.545625
vt 0.697084 0.500000
vt 0.666667 0.454375
vt 1.000000 0.954375
vt 1.000000 0.045625
vt 1.000000 0.454375
vt 0.302917 0.500000
vt 0.030417 0.500000
vt 0.333334 0.454375
vt 0.333334 0.045625
vt 0.969583 1.000000
vt 0.363751 0.454375
vt 0.636250 0.454375
vt 0.636250 0.045625
vt 0.363751 0.045625
vt 0.302917 0.454375
vt 0.302917 0.045625
vt 0.030417 0.045625
vt 0.030417 0.454375
vt 0.697084 0.545625
vt 0.697084 0.954375
vt 0.969583 0.954375
vt 0.969583 0.545625
vt 0.302917 0.954374
vt 0.302917 0.545625
vt 0.030417 0.545625
vt 0.030417 0.954374
vt 0.969583 0.045625
vt 0.697084 0.045625
vt 0.697084 0.454375
vt 0.969583 0.454375
vt 0.636250 0.545625
vt 0.666667 0.545625
vt 0.636250 0.500000
vt 0.666667 0.045625
vt 0.636250 0.000000
vt 0.636250 0.954374
vt 0.636250 1.000000
vt 0.666667 0.954374
vt 1.000000 0.545625
vt 0.969583 0.500000
vt 0.363751 0.545625
vt 0.363751 0.500000
vt 0.333334 0.545625
vt 0.666667 0.954375
vt 0.697084 1.000000
vt 0.363751 0.954374
vt 0.333334 0.954375
vt 0.363751 1.000000
vt 0.697084 0.500000
vt 0.666667 0.545625
vt 0.666667 0.454375
vt 1.000000 0.954375
vt 1.000000 0.454375
vt 1.000000 0.045625
vt 0.030417 0.500000
vt 0.302917 0.500000
vt 0.333334 0.045625
vt 0.333334 0.454375
vt 0.969583 1.000000
vt 0.363751 0.454375
vt 0.636250 0.454375
vt 0.636250 0.045625
vt 0.363751 0.045625
vt 0.302917 0.454375
vt 0.302917 0.045625
vt 0.030417 0.045625
vt 0.030417 0.454375
vt 0.697084 0.545625
vt 0.697084 0.954375
vt 0.969583 0.954375
vt 0.969583 0.545625
vt 0.302917 0.954374
vt 0.302917 0.545625
vt 0.030417 0.545625
vt 0.030417 0.954374
vt 0.969583 0.045625
vt 0.697084 0.045625
vt 0.697084 0.454375
vt 0.969583 0.454375
vt 0.636250 0.545625
vt 0.666667 0.545625
vt 0.636250 0.500000
vt 0.666667 0.045625
vt 0.636250 0.000000
vt 0.636250 0.954374
vt 0.636250 1.000000
vt 0.666667 0.954374
vt 1.000000 0.545625
vt 0.969583 0.500000
vt 0.363751 0.545625
vt 0.363751 0.500000
vt 0.333334 0.545625
vt 0.666667 0.954375
vt 0.697084 1.000000
vt 0.363751 0.954374
vt 0.333334 0.954375
vt 0.363751 1.000000
vt 0.697084 0.500000
vt 0.666667 0.545625
vt 0.666667 0.454375
vt 1.000000 0.954375
vt 1.000000 0.454375
vt 1.000000 0.045625
vt 0.030417 0.500000
vt 0.302917 0.500000
vt 0.333334 0.045625
vt 0.333334 0.454375
vt 0.969583 1.000000
vt 0.363751 0.454375
vt 0.363751 0.045625
vt 0.636250 0.045625
vt 0.636250 0.454375
vt 0.302917 0.454375
vt 0.030417 0.454375
vt 0.030417 0.045625
vt 0.302917 0.045625
vt 0.697084 0.545625
vt 0.969583 0.545625
vt 0.969583 0.954375
vt 0.697084 0.954375
vt 0.302917 0.954374
vt 0.030417 0.954374
vt 0.030417 0.545625
vt 0.302917 0.545625
vt 0.969583 0.045625
vt 0.969583 0.454375
vt 0.697084 0.454375
vt 0.697084 0.045625
vt 0.636250 0.545625
vt 0.636250 0.500000
vt 0.666667 0.545625
vt 0.636250 0.000000
vt 0.666667 0.045625
vt 0.636250 0.954374
vt 0.666667 0.954374
vt 0.636250 1.000000
vt 0.969583 0.500000
vt 1.000000 0.545625
vt 0.363751 0.545625
vt 0.333334 0.545625
vt 0.363751 0.500000
vt 0.697084 1.000000
vt 0.666667 0.954375
vt 0.363751 0.954374
vt 0.363751 1.000000
vt 0.333334 0.954375
vt 0.666667 0.545625
vt 0.697084 0.500000
vt 0.666667 0.454375
vt 1.000000 0.954375
vt 1.000000 0.045625
vt 1.000000 0.454375
vt 0.302917 0.500000
vt 0.030417 0.500000
vt 0.333334 0.454375
vt 0.333334 0.045625
vt 0.969583 1.000000
vn 0.0000 0.0000 1.0000
vn 1.0000 0.0000 0.0000
vn 0.0000 1.0000 0.0000
vn -1.0000 0.0000 0.0000
vn 0.0000 0.0000 -1.0000
vn -0.5773 -0.5774 0.5774
vn -0.5773 0.5774 0.5774
vn -0.5773 -0.5774 -0.5774
vn -0.5773 0.5774 -0.5774
vn 0.5773 -0.5774 0.5773
vn 0.5773 0.5774 0.5773
vn 0.5773 -0.5774 -0.5773
vn 0.5773 0.5774 -0.5773
vn -0.7071 -0.7071 0.0000
vn -0.7071 0.0000 0.7071
vn -0.7071 0.7071 0.0000
vn -0.7071 0.0000 -0.7071
vn -0.0000 -0.7071 -0.7071
vn 0.0000 0.7071 -0.7071
vn 0.7071 0.0000 -0.7071
vn 0.7071 -0.7071 0.0000
vn 0.7071 0.7071 0.0000
vn 0.7071 0.0000 0.7071
vn -0.0000 -0.7071 0.7071
vn 0.0000 0.7071 0.7071
vn 0.0000 -1.0000 0.0000
vn 0.5773 -0.5774 0.5774
vn 0.5773 0.5774 0.5774
vn 0.5773 -0.5774 -0.5774
vn 0.5773 0.5774 -0.5774
vn -0.5773 -0.5774 -0.5773
vn -0.5773 0.5774 -0.5773
vn -0.5773 -0.5774 0.5773
vn -0.5773 0.5774 0.5773
vn 0.5773 -0.5773 -0.5774
vn 0.5773 0.5773 -0.5774
vn 0.5774 -0.5773 0.5774
vn 0.5773 0.5773 0.5774
usemtl Metal
s off
f 143/217/129 145/218/129 132/219/129 130/220/129
f 149/221/130 151/222/130 146/223/130 142/224/130
f 150/225/131 138/226/131 133/227/131 144/228/131
f 131/229/132 134/230/132 140/231/132 136/232/132
f 137/233/133 139/234/133 152/235/133 148/236/133
f 129/237/134 130/238/134 131/239/134
f 132/219/135 133/240/135 134/241/135
f 135/242/136 136/243/136 137/244/136
f 138/226/137 139/245/137 140/246/137
f 141/247/138 142/248/138 143/249/138
f 144/228/139 145/250/139 146/251/139
f 147/252/140 148/253/140 149/254/140
f 150/225/141 151/255/141 152/256/141
f 135/242/142 129/237/142 131/239/142 136/243/142
f 130/220/143 132/219/143 134/241/143 131/257/143
f 133/227/144 138/226/144 140/246/144 134/258/144
f 139/234/145 137/233/145 136/259/145 140/260/145
f 147/252/146 135/242/146 137/244/146 148/253/146
f 138/226/147 150/225/147 152/235/147 139/234/147
f 151/222/148 149/221/148 148/261/148 152/262/148
f 141/247/149 147/252/149 149/254/149 142/248/149
f 150/225/150 144/228/150 146/251/150 151/255/150
f 145/218/151 143/217/151 142/263/151 146/264/151
f 129/237/152 141/247/152 143/217/152 130/220/152
f 144/228/153 133/227/153 132/265/153 145/250/153
f 135/242/154 147/252/154 141/247/154 129/237/154
f 167/266/129 154/267/129 156/268/129 169/269/129
f 173/270/132 166/271/132 170/272/132 175/273/132
f 174/274/131 168/275/131 157/276/131 162/277/131
f 155/278/130 160/279/130 164/280/130 158/281/130
f 161/282/133 172/283/133 176/284/133 163/285/133
f 153/286/155 155/287/155 154/288/155
f 156/268/156 158/289/156 157/290/156
f 159/291/157 161/292/157 160/293/157
f 162/277/158 164/294/158 163/295/158
f 165/296/134 167/297/134 166/298/134
f 168/275/135 170/299/135 169/300/135
f 171/301/136 173/302/136 172/303/136
f 174/274/137 176/304/137 175/305/137
f 159/291/149 160/293/149 155/287/149 153/286/149
f 154/267/151 155/306/151 158/289/151 156/268/151
f 157/276/150 158/307/150 164/294/150 162/277/150
f 163/285/148 164/308/148 160/309/148 161/282/148
f 171/301/146 172/303/146 161/292/146 159/291/146
f 162/277/147 163/285/147 176/284/147 174/274/147
f 175/273/145 176/310/145 172/311/145 173/270/145
f 165/296/142 166/298/142 173/302/142 171/301/142
f 174/274/144 175/305/144 170/299/144 168/275/144
f 169/269/143 170/312/143 166/313/143 167/266/143
f 153/286/152 154/267/152 167/266/152 165/296/152
f 168/275/153 169/300/153 156/314/153 157/276/153
f 159/291/154 153/286/154 165/296/154 171/301/154
f 191/315/133 178/316/133 180/317/133 193/318/133
f 197/319/130 190/320/130 194/321/130 199/322/130
f 198/323/131 192/324/131 181/325/131 186/326/131
f 179/327/132 184/328/132 188/329/132 182/330/132
f 185/331/129 196/332/129 200/333/129 187/334/129
f 177/335/159 179/336/159 178/337/159
f 180/317/160 182/338/160 181/339/160
f 183/340/161 185/341/161 184/342/161
f 186/326/162 188/343/162 187/344/162
f 189/345/140 191/346/140 190/347/140
f 192/324/141 194/348/141 193/349/141
f 195/350/138 197/351/138 196/352/138
f 198/323/139 200/353/139 199/354/139
f 183/340/142 184/342/142 179/336/142 177/335/142
f 178/316/145 179/355/145 182/338/145 180/317/145
f 181/325/144 182/356/144 188/343/144 186/326/144
f 187/334/143 188/357/143 184/358/143 185/331/143
f 195/350/152 196/352/152 185/341/152 183/340/152
f 186/326/153 187/334/153 200/333/153 198/323/153
f 199/322/151 200/359/151 196/360/151 197/319/151
f 189/345/149 190/347/149 197/351/149 195/350/149
f 198/323/150 199/354/150 194/348/150 192/324/150
f 193/318/148 194/361/148 190/362/148 191/315/148
f 177/335/146 178/316/146 191/315/146 189/345/146
f 192/324/147 193/349/147 180/363/147 181/325/147
f 183/340/154 177/335/154 189/345/154 195/350/154
f 215/364/133 217/365/133 204/366/133 202/367/133
f 221/368/132 223/369/132 218/370/132 214/371/132
f 222/372/131 210/373/131 205/374/131 216/375/131
f 203/376/130 206/377/130 212/378/130 208/379/130
f 209/380/129 211/381/129 224/382/129 220/383/129
f 201/384/163 202/385/163 203/386/163
f 204/366/164 205/387/164 206/388/164
f 207/389/165 208/390/165 209/391/165
f 210/373/166 211/392/166 212/393/166
f 213/394/159 214/395/159 215/396/159
f 216/375/160 217/397/160 218/398/160
f 219/399/161 220/400/161 221/401/161
f 222/372/162 223/402/162 224/403/162
f 207/389/149 201/384/149 203/386/149 208/390/149
f 202/367/148 204/366/148 206/388/148 203/404/148
f 205/374/150 210/373/150 212/393/150 206/405/150
f 211/381/151 209/380/151 208/406/151 212/407/151
f 219/399/152 207/389/152 209/391/152 220/400/152
f 210/373/153 222/372/153 224/382/153 211/381/153
f 223/369/143 221/368/143 220/408/143 224/409/143
f 213/394/142 219/399/142 221/401/142 214/395/142
f 222/372/144 216/375/144 218/398/144 223/402/144
f 217/365/145 215/364/145 214/410/145 218/411/145
f 201/384/146 213/394/146 215/364/146 202/367/146
f 216/375/147 205/374/147 204/412/147 217/397/147
f 207/389/154 219/399/154 213/394/154 201/384/154
